<mxfile host="app.diagrams.net" modified="2024-03-01T21:37:47.443Z" agent="Mozilla/5.0 (Windows NT 10.0; Win64; x64) AppleWebKit/537.36 (KHTML, like Gecko) Chrome/122.0.0.0 Safari/537.36" etag="C9Pg26mhFLY-iTmSrOb2" version="24.0.0" type="device">
  <diagram name="Página-1" id="IfMiX-KGeaZoK8MC3WMd">
    <mxGraphModel dx="1434" dy="772" grid="1" gridSize="10" guides="1" tooltips="1" connect="1" arrows="1" fold="1" page="1" pageScale="1" pageWidth="827" pageHeight="1169" math="0" shadow="0">
      <root>
        <mxCell id="0" />
        <mxCell id="1" parent="0" />
        <mxCell id="5_W-jQfqBR_fc5iRwy7F-1" value="Contratado" style="swimlane;horizontal=0;whiteSpace=wrap;html=1;startSize=23;" vertex="1" parent="1">
          <mxGeometry x="40" y="320" width="840" height="200" as="geometry" />
        </mxCell>
        <mxCell id="5_W-jQfqBR_fc5iRwy7F-6" style="edgeStyle=orthogonalEdgeStyle;rounded=0;orthogonalLoop=1;jettySize=auto;html=1;exitX=1;exitY=0.5;exitDx=0;exitDy=0;entryX=0;entryY=0.5;entryDx=0;entryDy=0;" edge="1" parent="5_W-jQfqBR_fc5iRwy7F-1" source="5_W-jQfqBR_fc5iRwy7F-2" target="5_W-jQfqBR_fc5iRwy7F-5">
          <mxGeometry relative="1" as="geometry" />
        </mxCell>
        <mxCell id="5_W-jQfqBR_fc5iRwy7F-2" value="" style="ellipse;whiteSpace=wrap;html=1;aspect=fixed;fillColor=#d5e8d4;strokeColor=#82b366;" vertex="1" parent="5_W-jQfqBR_fc5iRwy7F-1">
          <mxGeometry x="40" y="81.25" width="38.75" height="38.75" as="geometry" />
        </mxCell>
        <mxCell id="5_W-jQfqBR_fc5iRwy7F-9" style="edgeStyle=orthogonalEdgeStyle;rounded=0;orthogonalLoop=1;jettySize=auto;html=1;exitX=1;exitY=0.5;exitDx=0;exitDy=0;entryX=0;entryY=0.5;entryDx=0;entryDy=0;" edge="1" parent="5_W-jQfqBR_fc5iRwy7F-1" source="5_W-jQfqBR_fc5iRwy7F-5" target="5_W-jQfqBR_fc5iRwy7F-8">
          <mxGeometry relative="1" as="geometry" />
        </mxCell>
        <mxCell id="5_W-jQfqBR_fc5iRwy7F-5" value="Entra no perfil do Crontratante" style="rounded=1;whiteSpace=wrap;html=1;" vertex="1" parent="5_W-jQfqBR_fc5iRwy7F-1">
          <mxGeometry x="130" y="75" width="100" height="50" as="geometry" />
        </mxCell>
        <mxCell id="5_W-jQfqBR_fc5iRwy7F-11" style="edgeStyle=orthogonalEdgeStyle;rounded=0;orthogonalLoop=1;jettySize=auto;html=1;exitX=1;exitY=0.5;exitDx=0;exitDy=0;entryX=0;entryY=0.5;entryDx=0;entryDy=0;" edge="1" parent="5_W-jQfqBR_fc5iRwy7F-1" source="5_W-jQfqBR_fc5iRwy7F-8" target="5_W-jQfqBR_fc5iRwy7F-10">
          <mxGeometry relative="1" as="geometry" />
        </mxCell>
        <mxCell id="5_W-jQfqBR_fc5iRwy7F-8" value="Entre na área de avaliação" style="rounded=1;whiteSpace=wrap;html=1;" vertex="1" parent="5_W-jQfqBR_fc5iRwy7F-1">
          <mxGeometry x="290" y="75" width="110" height="50" as="geometry" />
        </mxCell>
        <mxCell id="5_W-jQfqBR_fc5iRwy7F-14" style="edgeStyle=orthogonalEdgeStyle;rounded=0;orthogonalLoop=1;jettySize=auto;html=1;exitX=1;exitY=0.5;exitDx=0;exitDy=0;entryX=0;entryY=0.5;entryDx=0;entryDy=0;" edge="1" parent="5_W-jQfqBR_fc5iRwy7F-1" source="5_W-jQfqBR_fc5iRwy7F-10" target="5_W-jQfqBR_fc5iRwy7F-13">
          <mxGeometry relative="1" as="geometry" />
        </mxCell>
        <mxCell id="5_W-jQfqBR_fc5iRwy7F-10" value="Avalie o Contratante" style="rounded=1;whiteSpace=wrap;html=1;" vertex="1" parent="5_W-jQfqBR_fc5iRwy7F-1">
          <mxGeometry x="450" y="75" width="110" height="50" as="geometry" />
        </mxCell>
        <mxCell id="5_W-jQfqBR_fc5iRwy7F-16" style="edgeStyle=orthogonalEdgeStyle;rounded=0;orthogonalLoop=1;jettySize=auto;html=1;exitX=1;exitY=0.5;exitDx=0;exitDy=0;entryX=0;entryY=0.5;entryDx=0;entryDy=0;" edge="1" parent="5_W-jQfqBR_fc5iRwy7F-1" source="5_W-jQfqBR_fc5iRwy7F-13" target="5_W-jQfqBR_fc5iRwy7F-15">
          <mxGeometry relative="1" as="geometry" />
        </mxCell>
        <mxCell id="5_W-jQfqBR_fc5iRwy7F-13" value="Comente sobre Contratante" style="rounded=1;whiteSpace=wrap;html=1;" vertex="1" parent="5_W-jQfqBR_fc5iRwy7F-1">
          <mxGeometry x="610" y="75" width="110" height="50" as="geometry" />
        </mxCell>
        <mxCell id="5_W-jQfqBR_fc5iRwy7F-15" value="" style="ellipse;whiteSpace=wrap;html=1;aspect=fixed;fillColor=#f8cecc;strokeColor=#b85450;" vertex="1" parent="5_W-jQfqBR_fc5iRwy7F-1">
          <mxGeometry x="777" y="81.25" width="38.75" height="38.75" as="geometry" />
        </mxCell>
        <mxCell id="5_W-jQfqBR_fc5iRwy7F-12" value="APP" style="swimlane;horizontal=0;whiteSpace=wrap;html=1;" vertex="1" parent="1">
          <mxGeometry x="40" y="560" width="670" height="200" as="geometry" />
        </mxCell>
        <mxCell id="5_W-jQfqBR_fc5iRwy7F-18" value="" style="ellipse;whiteSpace=wrap;html=1;aspect=fixed;fillColor=#d5e8d4;strokeColor=#82b366;" vertex="1" parent="5_W-jQfqBR_fc5iRwy7F-12">
          <mxGeometry x="50" y="80.63" width="38.75" height="38.75" as="geometry" />
        </mxCell>
        <mxCell id="5_W-jQfqBR_fc5iRwy7F-25" style="edgeStyle=orthogonalEdgeStyle;rounded=0;orthogonalLoop=1;jettySize=auto;html=1;exitX=1;exitY=0.5;exitDx=0;exitDy=0;entryX=0;entryY=0.5;entryDx=0;entryDy=0;" edge="1" parent="5_W-jQfqBR_fc5iRwy7F-12" source="5_W-jQfqBR_fc5iRwy7F-22" target="5_W-jQfqBR_fc5iRwy7F-24">
          <mxGeometry relative="1" as="geometry" />
        </mxCell>
        <mxCell id="5_W-jQfqBR_fc5iRwy7F-22" value="Adiciona avaliação ao perfil&amp;nbsp;" style="rounded=1;whiteSpace=wrap;html=1;" vertex="1" parent="5_W-jQfqBR_fc5iRwy7F-12">
          <mxGeometry x="130" y="75" width="110" height="50" as="geometry" />
        </mxCell>
        <mxCell id="5_W-jQfqBR_fc5iRwy7F-21" style="edgeStyle=orthogonalEdgeStyle;rounded=0;orthogonalLoop=1;jettySize=auto;html=1;exitX=1;exitY=0.5;exitDx=0;exitDy=0;" edge="1" parent="5_W-jQfqBR_fc5iRwy7F-12" source="5_W-jQfqBR_fc5iRwy7F-18" target="5_W-jQfqBR_fc5iRwy7F-22">
          <mxGeometry relative="1" as="geometry">
            <mxPoint x="130" y="100" as="targetPoint" />
          </mxGeometry>
        </mxCell>
        <mxCell id="5_W-jQfqBR_fc5iRwy7F-24" value="" style="ellipse;whiteSpace=wrap;html=1;aspect=fixed;fillColor=#f8cecc;strokeColor=#b85450;" vertex="1" parent="5_W-jQfqBR_fc5iRwy7F-12">
          <mxGeometry x="280" y="80.63" width="38.75" height="38.75" as="geometry" />
        </mxCell>
        <mxCell id="5_W-jQfqBR_fc5iRwy7F-30" style="edgeStyle=orthogonalEdgeStyle;rounded=0;orthogonalLoop=1;jettySize=auto;html=1;exitX=1;exitY=0.5;exitDx=0;exitDy=0;entryX=0;entryY=0.5;entryDx=0;entryDy=0;" edge="1" parent="5_W-jQfqBR_fc5iRwy7F-12" source="5_W-jQfqBR_fc5iRwy7F-26" target="5_W-jQfqBR_fc5iRwy7F-29">
          <mxGeometry relative="1" as="geometry" />
        </mxCell>
        <mxCell id="5_W-jQfqBR_fc5iRwy7F-26" value="" style="ellipse;whiteSpace=wrap;html=1;aspect=fixed;fillColor=#d5e8d4;strokeColor=#82b366;" vertex="1" parent="5_W-jQfqBR_fc5iRwy7F-12">
          <mxGeometry x="350" y="80.62" width="38.75" height="38.75" as="geometry" />
        </mxCell>
        <mxCell id="5_W-jQfqBR_fc5iRwy7F-33" style="edgeStyle=orthogonalEdgeStyle;rounded=0;orthogonalLoop=1;jettySize=auto;html=1;exitX=1;exitY=0.5;exitDx=0;exitDy=0;entryX=0;entryY=0.5;entryDx=0;entryDy=0;" edge="1" parent="5_W-jQfqBR_fc5iRwy7F-12" source="5_W-jQfqBR_fc5iRwy7F-29" target="5_W-jQfqBR_fc5iRwy7F-32">
          <mxGeometry relative="1" as="geometry" />
        </mxCell>
        <mxCell id="5_W-jQfqBR_fc5iRwy7F-29" value="Adiciona comentário ao perfil" style="rounded=1;whiteSpace=wrap;html=1;" vertex="1" parent="5_W-jQfqBR_fc5iRwy7F-12">
          <mxGeometry x="430" y="75.00999999999999" width="110" height="50" as="geometry" />
        </mxCell>
        <mxCell id="5_W-jQfqBR_fc5iRwy7F-32" value="" style="ellipse;whiteSpace=wrap;html=1;aspect=fixed;fillColor=#f8cecc;strokeColor=#b85450;" vertex="1" parent="5_W-jQfqBR_fc5iRwy7F-12">
          <mxGeometry x="580" y="80.62" width="38.75" height="38.75" as="geometry" />
        </mxCell>
        <mxCell id="5_W-jQfqBR_fc5iRwy7F-20" style="edgeStyle=orthogonalEdgeStyle;rounded=0;orthogonalLoop=1;jettySize=auto;html=1;exitX=0.5;exitY=1;exitDx=0;exitDy=0;entryX=0.5;entryY=0;entryDx=0;entryDy=0;dashed=1;" edge="1" parent="1" source="5_W-jQfqBR_fc5iRwy7F-10" target="5_W-jQfqBR_fc5iRwy7F-22">
          <mxGeometry relative="1" as="geometry">
            <mxPoint x="230" y="620" as="targetPoint" />
            <Array as="points">
              <mxPoint x="545" y="530" />
              <mxPoint x="225" y="530" />
            </Array>
          </mxGeometry>
        </mxCell>
        <mxCell id="5_W-jQfqBR_fc5iRwy7F-34" style="edgeStyle=orthogonalEdgeStyle;rounded=0;orthogonalLoop=1;jettySize=auto;html=1;exitX=0.5;exitY=1;exitDx=0;exitDy=0;entryX=0.5;entryY=0;entryDx=0;entryDy=0;dashed=1;" edge="1" parent="1" source="5_W-jQfqBR_fc5iRwy7F-13" target="5_W-jQfqBR_fc5iRwy7F-29">
          <mxGeometry relative="1" as="geometry">
            <Array as="points">
              <mxPoint x="705" y="540" />
              <mxPoint x="525" y="540" />
            </Array>
          </mxGeometry>
        </mxCell>
      </root>
    </mxGraphModel>
  </diagram>
</mxfile>
